<svg width="17" height="19" viewBox="0 0 17 19" fill="none" xmlns="http://www.w3.org/2000/svg">
<path d="M0 2.5C0 1.83696 0.263392 1.20107 0.732233 0.732233C1.20107 0.263392 1.83696 0 2.5 0H12.5C13.163 0 13.7989 0.263392 14.2678 0.732233C14.7366 1.20107 15 1.83696 15 2.5V8C15 8.13261 14.9473 8.25979 14.8536 8.35355C14.7598 8.44732 14.6326 8.5 14.5 8.5C14.3674 8.5 14.2402 8.44732 14.1464 8.35355C14.0527 8.25979 14 8.13261 14 8V2.5C14 2.10218 13.842 1.72064 13.5607 1.43934C13.2794 1.15804 12.8978 1 12.5 1H2.5C2.10218 1 1.72064 1.15804 1.43934 1.43934C1.15804 1.72064 1 2.10218 1 2.5V16.5C1 16.8978 1.15804 17.2794 1.43934 17.5607C1.72064 17.842 2.10218 18 2.5 18H9.5C9.63261 18 9.75979 18.0527 9.85355 18.1464C9.94732 18.2402 10 18.3674 10 18.5C10 18.6326 9.94732 18.7598 9.85355 18.8536C9.75979 18.9473 9.63261 19 9.5 19H2.5C1.83696 19 1.20107 18.7366 0.732233 18.2678C0.263392 17.7989 0 17.163 0 16.5V2.5Z" fill="white"/>
<path d="M14.5002 11C14.6328 11 14.76 11.0527 14.8538 11.1464C14.9476 11.2402 15.0002 11.3674 15.0002 11.5V12.167H15.1692C16.1192 12.167 17.0002 12.851 17.0002 13.833C17.0002 13.9656 16.9476 14.0928 16.8538 14.1866C16.76 14.2803 16.6328 14.333 16.5002 14.333C16.3676 14.333 16.2405 14.2803 16.1467 14.1866C16.0529 14.0928 16.0002 13.9656 16.0002 13.833C16.0002 13.523 15.6942 13.167 15.1692 13.167H13.6632C13.2332 13.167 13.0002 13.46 13.0002 13.683C13.0002 13.896 13.0522 13.968 13.0832 14.001C13.1292 14.05 13.2222 14.107 13.4332 14.17L15.8502 14.871C16.1132 14.949 16.4152 15.069 16.6462 15.315C16.8932 15.578 17.0002 15.919 17.0002 16.317C17.0002 17.215 16.1892 17.833 15.3372 17.833H15.0002V18.5C15.0002 18.6326 14.9476 18.7598 14.8538 18.8536C14.76 18.9473 14.6328 19 14.5002 19C14.3676 19 14.2405 18.9473 14.1467 18.8536C14.0529 18.7598 14.0002 18.6326 14.0002 18.5V17.833H13.8312C12.8812 17.833 12.0002 17.149 12.0002 16.167C12.0002 16.0344 12.0529 15.9072 12.1467 15.8134C12.2405 15.7197 12.3676 15.667 12.5002 15.667C12.6328 15.667 12.76 15.7197 12.8538 15.8134C12.9476 15.9072 13.0002 16.0344 13.0002 16.167C13.0002 16.477 13.3062 16.833 13.8312 16.833H15.3372C15.7672 16.833 16.0002 16.54 16.0002 16.317C16.0002 16.104 15.9482 16.032 15.9172 15.999C15.8712 15.95 15.7782 15.893 15.5672 15.83L13.1502 15.129C12.8872 15.051 12.5852 14.931 12.3542 14.685C12.1072 14.422 12.0002 14.081 12.0002 13.683C12.0002 12.785 12.8112 12.167 13.6632 12.167H14.0002V11.5C14.0002 11.3674 14.0529 11.2402 14.1467 11.1464C14.2405 11.0527 14.3676 11 14.5002 11ZM3.00024 8.5C3.00024 8.36739 3.05292 8.24021 3.14669 8.14644C3.24046 8.05268 3.36763 8 3.50024 8H4.00024C4.13285 8 4.26003 8.05268 4.35379 8.14644C4.44756 8.24021 4.50024 8.36739 4.50024 8.5C4.50024 8.63261 4.44756 8.75978 4.35379 8.85355C4.26003 8.94732 4.13285 9 4.00024 9H3.50024C3.36763 9 3.24046 8.94732 3.14669 8.85355C3.05292 8.75978 3.00024 8.63261 3.00024 8.5ZM6.00024 8.5C6.00024 8.36739 6.05292 8.24021 6.14669 8.14644C6.24046 8.05268 6.36763 8 6.50024 8H11.5002C11.6328 8 11.76 8.05268 11.8538 8.14644C11.9476 8.24021 12.0002 8.36739 12.0002 8.5C12.0002 8.63261 11.9476 8.75978 11.8538 8.85355C11.76 8.94732 11.6328 9 11.5002 9H6.50024C6.36763 9 6.24046 8.94732 6.14669 8.85355C6.05292 8.75978 6.00024 8.63261 6.00024 8.5ZM3.00024 11.5C3.00024 11.3674 3.05292 11.2402 3.14669 11.1464C3.24046 11.0527 3.36763 11 3.50024 11H4.00024C4.13285 11 4.26003 11.0527 4.35379 11.1464C4.44756 11.2402 4.50024 11.3674 4.50024 11.5C4.50024 11.6326 4.44756 11.7598 4.35379 11.8536C4.26003 11.9473 4.13285 12 4.00024 12H3.50024C3.36763 12 3.24046 11.9473 3.14669 11.8536C3.05292 11.7598 3.00024 11.6326 3.00024 11.5ZM6.00024 11.5C6.00024 11.3674 6.05292 11.2402 6.14669 11.1464C6.24046 11.0527 6.36763 11 6.50024 11H10.0002C10.1328 11 10.26 11.0527 10.3538 11.1464C10.4476 11.2402 10.5002 11.3674 10.5002 11.5C10.5002 11.6326 10.4476 11.7598 10.3538 11.8536C10.26 11.9473 10.1328 12 10.0002 12H6.50024C6.36763 12 6.24046 11.9473 6.14669 11.8536C6.05292 11.7598 6.00024 11.6326 6.00024 11.5ZM3.00024 14.5C3.00024 14.3674 3.05292 14.2402 3.14669 14.1464C3.24046 14.0527 3.36763 14 3.50024 14H4.00024C4.13285 14 4.26003 14.0527 4.35379 14.1464C4.44756 14.2402 4.50024 14.3674 4.50024 14.5C4.50024 14.6326 4.44756 14.7598 4.35379 14.8536C4.26003 14.9473 4.13285 15 4.00024 15H3.50024C3.36763 15 3.24046 14.9473 3.14669 14.8536C3.05292 14.7598 3.00024 14.6326 3.00024 14.5ZM6.00024 14.5C6.00024 14.3674 6.05292 14.2402 6.14669 14.1464C6.24046 14.0527 6.36763 14 6.50024 14H8.50024C8.63285 14 8.76003 14.0527 8.8538 14.1464C8.94756 14.2402 9.00024 14.3674 9.00024 14.5C9.00024 14.6326 8.94756 14.7598 8.8538 14.8536C8.76003 14.9473 8.63285 15 8.50024 15H6.50024C6.36763 15 6.24046 14.9473 6.14669 14.8536C6.05292 14.7598 6.00024 14.6326 6.00024 14.5ZM3.28424 2H11.7162C11.8422 2 11.9652 2 12.0692 2.008C12.1832 2.018 12.3192 2.04 12.4542 2.109C12.6424 2.20487 12.7954 2.35784 12.8912 2.546C12.9612 2.682 12.9822 2.816 12.9912 2.931C13.0002 3.035 13.0002 3.158 13.0002 3.284V4.716C13.0002 4.842 13.0002 4.965 12.9912 5.069C12.984 5.20273 12.95 5.33366 12.8912 5.454C12.7954 5.64215 12.6424 5.79513 12.4542 5.891C12.3339 5.94978 12.203 5.98378 12.0692 5.991C11.9517 5.99815 11.834 6.00115 11.7162 6H3.28424C3.15824 6 3.03524 6 2.93124 5.992C2.79744 5.98447 2.66651 5.95012 2.54624 5.891C2.35809 5.79513 2.20511 5.64215 2.10924 5.454C2.05046 5.33366 2.01646 5.20273 2.00924 5.069C2.00209 4.95147 1.99908 4.83373 2.00024 4.716V3.284C2.00024 3.158 2.00024 3.035 2.00824 2.931C2.01824 2.817 2.04024 2.681 2.10924 2.546C2.20511 2.35784 2.35809 2.20487 2.54624 2.109C2.66658 2.05022 2.79751 2.01621 2.93124 2.009C3.04877 2.00184 3.16651 1.99884 3.28424 2ZM3.00624 3.006V3.012C3.00024 3.071 3.00024 3.152 3.00024 3.3V4.7C2.99864 4.79804 3.00064 4.8961 3.00624 4.994H3.01224C3.07124 5 3.15224 5 3.30024 5H11.7002C11.8482 5 11.9302 5 11.9882 4.995H11.9942V4.988C11.9997 4.8921 12.0017 4.79604 12.0002 4.7V3.3C12.0018 3.20196 11.9998 3.10389 11.9942 3.006H11.9882C11.8923 3.00054 11.7963 2.99854 11.7002 3H3.30024C3.2022 2.99839 3.10413 3.00039 3.00624 3.006Z" fill="white"/>
</svg>
